HIERARCHY
ROOT Hips
{
  OFFSET 0 0 0
  CHANNELS 6 Xposition Yposition Zposition Zrotation Yrotation Xrotation
  JOINT LeftThigh
  {
    OFFSET 8.409438 0 -5.917753
    CHANNELS 3 Zrotation Yrotation Xrotation
    JOINT LeftLeg
    {
      OFFSET 0 0 -42.358652
      CHANNELS 3 Zrotation Yrotation Xrotation
      JOINT LeftFoot
      {
        OFFSET 0 0 -39.357303
        CHANNELS 3 Zrotation Yrotation Xrotation
      }
    }
  }
  JOINT RightThigh
  {
    OFFSET -8.409438 0 -5.917753
    CHANNELS 3 Zrotation Yrotation Xrotation
    JOINT RightLeg
    {
      OFFSET 0 0 -42.358652
      CHANNELS 3 Zrotation Yrotation Xrotation
      JOINT RightFoot
      {
        OFFSET 0 0 -39.357303
        CHANNELS 3 Zrotation Yrotation Xrotation
      }
    }
  }
  JOINT SpineLow
  {
    OFFSET 0 0 4.719101
    CHANNELS 3 Zrotation Yrotation Xrotation
    JOINT SpineMid
    {
      OFFSET 0 0 12.899191
      CHANNELS 3 Zrotation Yrotation Xrotation
      JOINT Chest
      {
        OFFSET 0 0 12.899191
        CHANNELS 3 Zrotation Yrotation Xrotation
        JOINT LeftShoulder
        {
          OFFSET 7.550562 1.41573 9.438202
          CHANNELS 3 Zrotation Yrotation Xrotation
          JOINT LeftArm
          {
            OFFSET 9.155056 0 4.247191
            CHANNELS 3 Zrotation Yrotation Xrotation
            JOINT LeftForearm
            {
              OFFSET 0 0 25.771955
              CHANNELS 3 Zrotation Yrotation Xrotation
              JOINT LeftHand
              {
                OFFSET 0 0 25.197169
                CHANNELS 3 Zrotation Yrotation Xrotation
              }
            }
          }
        }
        JOINT RightShoulder
        {
          OFFSET -7.550562 1.41573 9.438202
          CHANNELS 3 Zrotation Yrotation Xrotation
          JOINT RightArm
          {
            OFFSET -9.155056 0 4.247191
            CHANNELS 3 Zrotation Yrotation Xrotation
            JOINT RightForearm
            {
              OFFSET 0 0 -25.771955
              CHANNELS 3 Zrotation Yrotation Xrotation
              JOINT RightHand
              {
                OFFSET 0 0 -25.197169
                CHANNELS 3 Zrotation Yrotation Xrotation
              }
            }
          }
        }
        JOINT Neck
        {
          OFFSET 0 0 15.101124
          CHANNELS 3 Zrotation Yrotation Xrotation
          JOINT Head
          {
            OFFSET 0 0 11.325843
            CHANNELS 3 Zrotation Yrotation Xrotation
            End Site
            {
              OFFSET 0 0 14.157303
            }
          }
        }
      }
    }
  }
}
MOTION
Frames: 13
Frame Time: 0.0
0.0  89.887642  0.0  -2.269082  39.666319  -92.564072  -7.083052  -12.37099  -7.49923  -12.478702  1.110232  18.444109  1.412587  0.776102  2.340321  -29.94548  11.40407  3.896631  -15.107729  6.100926  9.506277  10.05592  1.717516  0.825303  1.652462  -0.755617  -0.267783  4.52648  -2.045969  -0.783423  4.52648  -2.045969  -0.783423  17.992179  12.098862  19.886857  145.947416  10.949638  176.296622  -23.721797  42.327374  94.700613  63.661333  -7.526074  25.776596  14.427344  8.237393  1.640801  -122.715573  68.687263  166.035017  -25.491282  12.247312  -115.708064  76.846978  16.191502  21.511635  -23.729249  3.650881  7.032209  -17.835687  2.469773  5.424113  
0.0  89.887642  0.0  -2.352041  39.129302  -92.523897  -6.728555  -12.530775  -7.582615  -12.210599  1.083443  18.586081  1.394962  0.783933  2.30468  -30.07071  11.396876  3.458309  -14.890092  6.078763  9.848211  10.162028  1.725684  0.868748  1.661256  -0.75151  -0.31113  4.551784  -2.031653  -0.901859  4.551784  -2.031653  -0.90186  17.765888  11.932846  19.966897  145.769886  11.333941  176.396513  -23.441208  41.343998  95.092353  64.199085  -7.268156  25.702181  14.278272  7.804187  2.10073  -123.24813  68.835336  165.644959  -25.437784  12.299732  -115.490075  76.768839  16.187368  21.703862  -23.368426  3.623034  7.212388  -17.566101  2.445994  5.55593  
0.0  89.887642  0.0  -2.47761  38.444768  -92.541043  -6.256428  -12.744213  -7.547891  -12.011355  1.084972  18.575993  1.395269  0.799627  2.290797  -29.804577  11.321825  3.126944  -14.768294  6.036  10.211871  10.277402  1.762526  0.920461  1.72969  -0.780318  -0.336937  4.740186  -2.107522  -0.976549  4.740186  -2.107522  -0.976549  17.199062  12.019552  20.035277  145.647181  11.782787  176.563881  -23.221593  40.17029  95.447282  64.693329  -6.99595  25.808923  13.554013  7.69858  2.427123  -123.230253  69.159216  165.525964  -25.405958  12.297274  -115.25843  76.615724  16.077059  21.748062  -23.206373  3.659633  7.245153  -17.445122  2.474115  5.580799  
0.0  89.887642  0.0  -2.549992  37.936931  -92.48452  -6.06448  -12.883898  -7.606398  -11.551988  0.97565  18.702414  1.302838  0.832924  2.268292  -29.819276  11.316324  2.658181  -14.460301  5.997496  10.676676  10.234459  1.762419  0.943974  1.728569  -0.784448  -0.367617  4.738169  -2.116619  -1.060653  4.738169  -2.116619  -1.060653  16.82555  12.017861  20.011624  145.497001  12.288221  176.783081  -23.082296  38.863454  95.77226  65.209982  -6.693677  26.072589  13.330417  7.378276  2.857039  -123.638306  69.441654  165.265671  -25.32625  12.247878  -114.972095  76.46572  15.987871  21.772726  -22.748238  3.611793  7.338165  -17.101791  2.439994  5.645774  
0.0  89.887642  0.0  -2.670884  37.19763  -92.512565  -5.632197  -13.085414  -7.592941  -11.203013  0.950921  18.778817  1.275208  0.837441  2.258955  -29.549096  11.276116  2.241987  -14.238676  5.958046  11.158446  10.313378  1.787624  0.987547  1.743968  -0.82653  -0.357404  4.780739  -2.232056  -1.036305  4.780739  -2.232056  -1.036306  16.542632  12.322936  19.827868  145.412748  12.872936  176.966175  -22.948299  37.2546  96.130622  65.637542  -6.310665  26.555347  12.868382  7.428348  3.062014  -123.532739  69.939205  165.219481  -25.141776  12.099065  -114.624653  76.276128  15.869547  21.650225  -22.281847  3.60712  7.226161  -16.751265  2.446022  5.55835  
0.0  89.887642  0.0  -2.786022  36.528713  -92.535067  -5.019331  -13.306269  -7.540869  -11.033781  0.985444  18.82628  1.24119  0.812208  2.20254  -29.068962  11.229293  1.971305  -14.026816  5.893179  11.592118  10.162031  1.764585  1.005171  1.688087  -0.8517  -0.309723  4.626772  -2.305069  -0.90591  4.626772  -2.305069  -0.90591  16.624086  12.617617  19.320628  144.53125  13.647027  177.229691  -23.722978  35.402513  96.168518  66.050535  -5.879528  27.204346  12.891534  7.35374  3.091789  -123.687391  70.477778  165.069899  -24.818752  11.872447  -114.227076  76.121146  15.76636  21.464066  -21.413096  3.461744  7.085563  -16.097614  2.351741  5.441977  
0.0  89.887642  0.0  -2.889532  35.766887  -92.580146  -4.460368  -13.49497  -7.473304  -10.779305  0.975063  18.851719  1.236087  0.80892  2.194929  -28.862567  11.159198  1.602005  -13.69611  5.878411  11.983523  10.248206  1.773681  1.0595  1.658993  -0.868522  -0.288984  4.54677  -2.352869  -0.849392  4.54677  -2.352869  -0.849392  16.515305  12.839874  19.032737  144.559842  14.421464  177.455471  -23.472071  33.429962  96.600123  66.651292  -5.47521  28.049408  12.578755  7.266519  3.219038  -123.543866  71.243504  164.979623  -24.411715  11.585731  -113.788401  75.910491  15.665651  21.190817  -20.708733  3.357818  6.983451  -15.567861  2.285101  5.357345  
0.0  89.887642  0.0  -3.00082  35.04651  -92.641136  -3.752099  -13.703955  -7.343506  -10.789133  1.010085  18.733345  1.29195  0.804373  2.217055  -28.527243  11.121308  1.355809  -12.962349  5.811346  12.422128  10.028952  1.727647  1.063395  1.650133  -0.864975  -0.285454  4.522363  -2.343538  -0.839185  4.522363  -2.343538  -0.839185  15.992846  12.877831  18.675198  144.307765  15.328071  177.784531  -23.842849  31.454842  96.729813  67.27621  -4.921993  29.00468  12.377755  6.835896  3.534045  -124.206317  71.998476  164.373536  -23.915646  11.254567  -113.269523  75.737263  15.562794  20.780958  -20.018611  3.216328  7.003511  -15.049199  2.185874  5.363585  
0.0  89.887642  0.0  -3.080291  34.268442  -92.714231  -3.126267  -13.896681  -7.227402  -10.634579  1.017317  18.713154  1.27602  0.806988  2.205405  -28.425745  11.132116  1.041003  -12.608492  5.733116  12.757222  10.087728  1.725878  1.104209  1.463935  -0.846618  -0.314551  4.013943  -2.294081  -0.91102  4.013943  -2.294081  -0.91102  16.809091  12.702032  18.672874  144.501948  16.209224  178.113994  -23.479809  29.504007  97.167484  67.993893  -4.272291  29.985858  13.009662  6.386287  4.018419  -124.44016  73.014859  163.869896  -23.428472  10.887756  -112.740147  75.680752  15.431968  20.310262  -18.724826  3.105967  7.128367  -14.078667  2.113693  5.446316  
0.0  89.887642  0.0  -3.137093  33.516428  -92.776263  -2.489259  -14.044911  -7.058293  -10.538228  1.00868  18.664032  1.309089  0.801047  2.185867  -28.187353  11.184174  0.809323  -12.046182  5.628311  13.129515  9.879289  1.63488  1.096232  1.273911  -0.83621  -0.349097  3.495364  -2.26652  -0.998331  3.495364  -2.26652  -0.998331  17.548316  12.535984  18.614341  144.269127  17.221263  178.550942  -23.648747  27.775476  97.284397  68.806223  -3.59742  30.896055  13.953478  5.83787  4.678894  -125.572908  74.047363  162.829692  -23.137528  10.691693  -112.238735  75.742996  15.264961  19.935955  -17.514692  3.084777  7.252332  -13.171644  2.10809  5.531835  
0.0  89.887642  0.0  -3.201113  32.658276  -92.836082  -1.84747  -14.231424  -6.887625  -10.368862  0.995706  18.584175  1.312613  0.812429  2.177184  -28.042724  11.260439  0.501622  -11.813469  5.48161  13.466072  9.973998  1.636122  1.125699  1.215338  -0.824852  -0.434615  3.33788  -2.232065  -1.229518  3.33788  -2.232065  -1.229518  17.524037  12.312022  18.861282  144.511388  18.163878  178.955353  -23.303175  26.141911  97.733753  69.71195  -2.907721  31.764761  13.773016  5.306608  5.497772  -126.71271  75.343148  161.437546  -23.108353  10.711746  -111.786602  75.838365  15.025613  19.560842  -16.718204  3.050361  7.530503  -12.575537  2.083946  5.735169  
0.0  89.887642  0.0  -3.227739  31.846722  -92.888481  -1.470961  -14.307031  -6.754586  -10.092595  0.92783  18.578373  1.479891  0.808508  2.252514  -27.969955  11.390176  0.135432  -11.853774  5.327676  13.806126  10.09731  1.671216  1.174936  1.310433  -0.789667  -0.544826  3.60067  -2.128094  -1.532003  3.60067  -2.128094  -1.532003  16.410622  11.967514  19.199968  144.189788  19.300447  179.541228  -23.596632  24.653928  97.839374  70.594907  -2.278627  32.544743  12.812537  4.475872  6.472575  -128.914094  76.647534  159.312533  -23.171138  10.861965  -111.338213  75.930624  14.68354  19.064706  -16.602438  3.002582  7.898746  -12.490257  2.039494  6.009618  
0.0  89.887642  0.0  -3.308854  30.880765  -92.983864  -0.864728  -14.506759  -6.513438  -9.787735  0.867732  18.494062  1.475674  0.806385  2.248906  -27.552358  11.416727  -0.189923  -11.72139  5.22895  14.221905  10.217762  1.689815  1.227124  1.49587  -0.728981  -0.716519  4.1111  -1.947202  -2.003295  4.111099  -1.947202  -2.003295  14.932426  11.324804  19.870982  144.339486  20.285819  -179.945786  -23.329144  23.12894  98.273979  71.340019  -1.738624  33.344514  11.050949  3.523216  7.756237  -130.723435  78.147718  157.290543  -23.243977  11.082916  -110.89497  75.885202  14.554833  18.703506  -16.701327  2.862227  8.526898  -12.566224  1.915717  6.477877  
